<?xml version="1.0" standalone="no"?><!DOCTYPE svg PUBLIC "-//W3C//DTD SVG 1.1//EN" "http://www.w3.org/Graphics/SVG/1.1/DTD/svg11.dtd"><svg t="1596099392001" class="icon" viewBox="0 0 1024 1024" version="1.1" xmlns="http://www.w3.org/2000/svg" p-id="2433" xmlns:xlink="http://www.w3.org/1999/xlink" width="200" height="200"><defs><style type="text/css"></style></defs><path d="M954.368 185.856c-67.072-75.264-167.424-103.424-256.512-83.456-22.528 5.632-33.28 25.088-30.72 47.616 5.632 22.528 25.088 33.28 47.616 30.72 64-13.824 136.704 5.632 184.32 58.368 47.616 53.248 61.44 125.44 38.912 189.952-2.56 11.264-2.56 19.456 2.56 30.72 5.632 8.192 13.824 16.896 22.528 19.456 19.456 5.632 41.984-5.632 50.176-25.088 24.576-92.672 8.192-193.024-58.88-268.288z" fill="#DD5B59" p-id="2434"></path><path d="M834.56 431.104c16.896 5.632 36.352-2.56 41.984-22.528 13.824-44.544 5.632-92.16-27.648-128.512-33.28-36.352-80.896-50.176-125.44-41.984-19.456 2.56-30.72 22.528-25.088 38.912 2.56 19.456 22.528 30.72 38.912 25.088 22.528-5.632 44.544 2.56 61.44 19.456 16.896 16.896 19.456 41.984 13.824 64-6.144 20.48 5.12 39.936 22.016 45.568zM767.488 495.616c-13.824-5.632-25.088-8.192-16.896-25.088 16.896-41.984 16.896-78.336 0-103.424-33.28-47.616-125.44-44.544-228.864 0 0 0-33.28 13.824-25.088-11.264 16.896-53.248 13.824-94.72-11.264-119.808-55.808-55.808-206.336 2.56-334.848 131.072C55.808 464.896 0 565.248 0 654.336c0 169.984 217.6 273.408 429.568 273.408 279.04 0 463.36-161.792 463.36-290.304 0-77.824-67.072-122.368-125.44-141.824z m-337.92 371.2c-169.984 16.896-315.392-61.44-326.656-169.984-10.752-112.128 117.76-215.552 287.744-231.936 169.984-16.896 315.392 61.44 326.656 169.984 10.752 111.616-117.248 215.04-287.744 231.936z" fill="#DD5B59" p-id="2435"></path><path d="M446.464 548.352c-80.896-22.528-173.056 19.456-206.336 89.088-36.352 72.704 0 153.6 80.896 178.688 83.968 27.648 184.32-13.824 217.6-92.16 33.28-75.264-8.192-153.088-92.16-175.616z m-61.44 186.88c-16.896 25.088-50.176 38.912-78.336 25.088-25.088-11.264-33.28-41.984-16.896-67.072 16.896-25.088 50.176-36.352 75.264-25.088 28.16 8.704 36.864 39.424 19.968 67.072z" fill="#DD5B59" p-id="2436"></path></svg>